# xmcd
#
# Track frame offsets:
#	150
#	10447
#	22457
#	34592
#	46545
#	59372
#	76890
#	94162
#	110692
#	126332
#	141192
#	153862
#	164662
#	186002
#	200680
#	214777
#
# Disc length: 3017 seconds
#
# Revision: 1
# Processed by: cddbd v1.5.1PL0 Copyright (c) Steve Scherf et al.
# Submitted via: audiograbber 1.83.01
#
DISCID=e10bc710
DTITLE=Serie 32 - Instrumentales Dorados - Serie 32 [CD1)
DYEAR=1900
DGENRE=Instrumental Pop
TTITLE0=Tijuana Brass - The Lonely Bull 
TTITLE1=Paul Mauriat - Love Is Blue
TTITLE2=Richard Clayderman - Balada Para Adelina
TTITLE3=Bert Kaempfert - Spanish Eyes
TTITLE4=Ronnie Aldrich - Somethin' Stupid
TTITLE5=James Last - Copacabana
TTITLE6=Chuck Mangione - Bellavia
TTITLE7=Nicolas De Angelis - Unas Notas Para Ana
TTITLE8=Mantovani - My Way
TTITLE9=Nicolas De Angelis - Maria Elena
TTITLE10=Antonio Carlos Jobim - Desafinado
TTITLE11=Bert Kaempfert - Red Roses For A Blue Lady
TTITLE12=James Last - Hey Jude
TTITLE13=George Schmit Randall - La Pasajera
TTITLE14=Burt Bacharach and Hal David - Alfie
TTITLE15=Tijuana Brass - Whipped Cream
EXTD=
EXTT0=
EXTT1=
EXTT2=
EXTT3=
EXTT4=
EXTT5=
EXTT6=
EXTT7=
EXTT8=
EXTT9=
EXTT10=
EXTT11=
EXTT12=
EXTT13=
EXTT14=
EXTT15=
PLAYORDER=
